<svg width="24" height="24" viewBox="0 0 24 24" fill="none" xmlns="http://www.w3.org/2000/svg">
<g clip-path="url(#clip0)">
<path d="M22.5583 9.44322V21.0879C22.5583 21.8634 21.9305 22.4917 21.1545 22.4917H2.84513C2.06963 22.4917 1.44132 21.8633 1.44132 21.0879V9.44322C1.87852 9.70192 2.38866 9.85023 2.93316 9.85023C3.67487 9.85023 4.35751 9.57344 4.87787 9.11275C5.39827 8.65267 5.75527 8.00744 5.84509 7.27174L5.94516 6.44922C5.93068 6.57283 5.92285 6.69644 5.92285 6.81766C5.92285 8.46813 7.26456 9.85023 8.96143 9.85023C10.6396 9.85023 12 8.48983 12 6.81227C12 8.48988 13.3598 9.85023 15.038 9.85023C16.7361 9.85023 18.0772 8.46813 18.0772 6.81648C18.0772 6.69648 18.0699 6.57527 18.0549 6.45227L18.1549 7.27178C18.2448 8.00744 18.6017 8.65267 19.1216 9.1128C19.642 9.57349 20.3252 9.85028 21.0663 9.85028C21.611 9.85028 22.1211 9.70192 22.5583 9.44322Z" fill="#518EF8"/>
<path d="M22.5582 11.7362V13.143C22.121 13.4017 21.6109 13.5501 21.0664 13.5501C20.3253 13.5501 19.6421 13.2733 19.1217 12.8126C18.6019 12.3525 18.2449 11.7073 18.155 10.9716L18.0549 10.152C18.07 10.275 18.0772 10.3963 18.0772 10.5163C18.0772 12.1679 16.7361 13.55 15.038 13.55C13.3599 13.55 12.0001 12.1896 12.0001 10.512C12.0001 12.1897 10.6397 13.55 8.96149 13.55C7.26462 13.55 5.92291 12.1679 5.92291 10.5174C5.92291 10.3962 5.93074 10.2726 5.94523 10.149L5.84515 10.9715C5.75529 11.7072 5.39834 12.3524 4.87793 12.8125C4.35752 13.2732 3.67493 13.55 2.93323 13.55C2.38873 13.55 1.87854 13.4017 1.44138 13.143V11.7362C1.87859 11.9949 2.38873 12.1432 2.93323 12.1432C3.67493 12.1432 4.35757 11.8664 4.87793 11.4057C5.39834 10.9456 5.75534 10.3004 5.84515 9.5647L5.94523 8.74219C5.93074 8.8658 5.92291 8.98941 5.92291 9.11062C5.92291 10.7611 7.26462 12.1432 8.96149 12.1432C10.6397 12.1432 12.0001 10.7828 12.0001 9.10523C12.0001 10.7828 13.3599 12.1432 15.038 12.1432C16.7361 12.1432 18.0772 10.7611 18.0772 9.10945C18.0772 8.98945 18.07 8.86823 18.0549 8.74523L18.155 9.56475C18.2449 10.3004 18.6018 10.9456 19.1217 11.4058C19.6421 11.8665 20.3253 12.1432 21.0664 12.1432C21.6109 12.1433 22.121 11.9949 22.5582 11.7362Z" fill="#4786E2"/>
<path d="M18.0549 8.83623C18.07 8.95923 18.0772 9.08045 18.0772 9.20045C18.0772 10.8521 16.7361 12.2342 15.038 12.2342C13.3598 12.2342 12 10.8738 12 9.19623L10.5528 5.66415L12 1.5083H17.1618L18.7136 5.66893L18.0543 8.82835C18.0549 8.83079 18.0549 8.83384 18.0549 8.83623Z" fill="#ACD1FC"/>
<path d="M6.83761 1.50879L8.18095 6.07516L5.94577 8.82879V8.82884L5.84508 9.65613C5.75522 10.3918 5.39827 11.037 4.87786 11.4971C4.35745 11.9578 3.67486 12.2346 2.93316 12.2346C2.38866 12.2346 1.87847 12.0863 1.44131 11.8276V11.827C0.578297 11.3168 0 10.3767 0 9.30152V9.08384L1.99786 2.24168C2.12466 1.80734 2.52291 1.50879 2.97539 1.50879H6.83761Z" fill="#ACD1FC"/>
<path d="M22.5583 11.8276C22.1211 12.0863 21.6109 12.2346 21.0664 12.2346C20.3253 12.2346 19.6421 11.9578 19.1217 11.4971C18.6019 11.0371 18.2449 10.3918 18.1551 9.65613L18.055 8.83662C18.055 8.83423 18.055 8.83118 18.0544 8.82879L17.1619 1.50879H21.0242C21.4766 1.50879 21.8749 1.80734 22.0017 2.24163L24.0001 9.08388V9.30157C24.0001 10.3767 23.4212 11.3169 22.5583 11.8276Z" fill="#3A5BBC"/>
<path d="M11.9999 1.50884V9.19667C11.9999 10.8743 10.6395 12.2346 8.96136 12.2346C7.26449 12.2346 5.92279 10.8525 5.92279 9.20206C5.92279 9.08084 5.93061 8.95723 5.9451 8.83362C5.9451 8.83179 5.94571 8.83062 5.94571 8.82879L6.83755 1.50879H11.9999V1.50884Z" fill="#3A5BBC"/>
<path d="M18.033 20.8821C16.3698 20.8821 15.0167 19.529 15.0167 17.8659C15.0167 16.2027 16.3698 14.8496 18.033 14.8496C18.8389 14.8496 19.5965 15.1633 20.1661 15.7328L19.5265 16.3723C19.1278 15.9736 18.5974 15.7541 18.033 15.7541C16.8686 15.7541 15.9212 16.7014 15.9212 17.8658C15.9212 19.0303 16.8686 19.9776 18.033 19.9776C19.0422 19.9776 19.8884 19.2659 20.096 18.3181H18.033V17.4136H21.0492V17.8658C21.0492 19.529 19.6961 20.8821 18.033 20.8821Z" fill="white"/>
</g>
<defs>
<clipPath id="clip0">
<rect width="24" height="24" fill="white"/>
</clipPath>
</defs>
</svg>
