<svg width="24" height="24" viewBox="0 0 24 24" fill="none" xmlns="http://www.w3.org/2000/svg">
<path d="M21.7778 1H2.22222C1.54633 1 1 1.54756 1 2.22222V21.7778C1 22.4524 1.54633 23 2.22222 23H12.7517V14.4933H9.89411V11.1628H12.7517V8.71833C12.7517 5.87667 14.4872 4.32811 17.0294 4.32811C17.8838 4.32567 18.7393 4.36967 19.59 4.45889V7.41667H17.8361C16.4574 7.41667 16.1886 8.07422 16.1886 9.03611V11.1567H19.4849L19.0571 14.4872H16.1873V23H21.7778C22.4537 23 23 22.4524 23 21.7778V2.22222C23 1.54756 22.4537 1 21.7778 1Z" fill="#3B5998"/>
</svg>
