<svg width="18" height="24" viewBox="0 0 18 24" fill="none" xmlns="http://www.w3.org/2000/svg">
<path fill-rule="evenodd" clip-rule="evenodd" d="M15.6614 0H3.00775C1.26982 0 0.749878 1.3305 0.749878 2.16806V22.5021C0.749878 23.5039 1.2535 23.7996 1.5295 23.9145C1.80569 24.0294 2.53657 24.1116 3.05631 23.586C3.05631 23.586 9.06644 16.5069 9.16375 16.392C9.26125 16.2771 9.31 16.2771 9.37488 16.2771H13.1759C14.8002 16.2771 15.1088 15.1438 15.2875 14.454C15.4338 13.8791 17.1068 5.66663 17.6266 3.07162C18.0166 1.06763 17.5131 0 15.6614 0ZM14.9142 3.46575L14.3457 6.2415C14.2808 6.53719 14.0046 6.79987 13.6634 6.79987H8.72538C8.173 6.79987 7.71832 7.25981 7.71832 7.81819V8.42587C7.71832 8.98425 8.17319 9.44419 8.72538 9.44419H12.8999C13.2897 9.44419 13.6146 9.822 13.5334 10.2326C13.4523 10.6597 13.0137 12.8278 12.9649 13.0577C12.9325 13.3041 12.6726 13.6161 12.2828 13.6161H8.87163C8.15688 13.6326 8.01081 13.6489 7.58838 14.1744C7.16613 14.7 3.43 19.4304 3.43 19.4304C3.39756 19.4797 3.36513 19.4632 3.36513 19.4139V3.33394C3.36513 2.95613 3.67375 2.64412 4.04725 2.64412H14.2968C14.6543 2.64431 15.0117 3.00581 14.9142 3.46575Z" fill="#FA4778"/>
</svg>
