<svg width="24" height="16" viewBox="0 0 24 16" fill="none" xmlns="http://www.w3.org/2000/svg">
<path d="M14.1345 11.8582C13.8 11.6167 13.332 11.6857 13.086 12.0247L12.039 13.4677L10.8975 12.0037C10.6425 11.6767 10.17 11.6167 9.84448 11.8732C9.51898 12.1282 9.46048 12.5992 9.71548 12.9262L11.4705 15.1762C11.613 15.3577 11.8305 15.4642 12.0615 15.4642C12.066 15.4642 12.0705 15.4642 12.075 15.4642C12.3105 15.4597 12.531 15.3457 12.6675 15.1552L14.2995 12.9052C14.5425 12.5707 14.4705 12.1012 14.1345 11.8582Z" fill="black"/>
<path d="M6 3.46436H0.75C0.4155 3.46436 0.123 3.68486 0.03 4.00586C-0.063 4.32836 0.0675 4.67186 0.351 4.84886C0.357 4.85336 0.87 5.18786 1.2675 5.79685C0.447 6.83935 0 8.12035 0 9.46435C0 12.7734 2.691 15.4643 6 15.4643C9.309 15.4643 12 12.7734 12 9.46435C12 6.15535 9.309 3.46436 6 3.46436ZM6 13.9644C3.519 13.9644 1.5 11.9454 1.5 9.46435C1.5 8.32135 1.9335 7.23685 2.718 6.41185C2.9295 6.18985 2.985 5.86435 2.859 5.58535C2.757 5.36035 2.64 5.15185 2.5155 4.96435H6C8.481 4.96435 10.5 6.98335 10.5 9.46435C10.5 11.9454 8.481 13.9644 6 13.9644Z" fill="#28B446"/>
<path d="M20.0056 3.66082C15.4426 -0.504679 8.55761 -0.50618 3.99461 3.66082C3.68861 3.93982 3.66611 4.41382 3.94661 4.71982C4.22561 5.02732 4.69961 5.04682 5.00561 4.76782C8.99411 1.12732 15.0076 1.12732 18.9946 4.76782C19.1386 4.89982 19.3201 4.96432 19.5001 4.96432C19.7041 4.96432 19.9066 4.88182 20.0536 4.71982C20.3341 4.41382 20.3116 3.93982 20.0056 3.66082Z" fill="#28B446"/>
<path d="M6 6.46436C4.3455 6.46436 3 7.80986 3 9.46436C3 11.1189 4.3455 12.4644 6 12.4644C7.6545 12.4644 9 11.1189 9 9.46436C9 7.80986 7.6545 6.46436 6 6.46436ZM6 10.9644C5.1735 10.9644 4.5 10.2924 4.5 9.46436C4.5 8.63786 5.1735 7.96436 6 7.96436C6.8265 7.96436 7.5 8.63786 7.5 9.46436C7.5 10.2924 6.8265 10.9644 6 10.9644Z" fill="black"/>
<path d="M6.0299 8.71436H6.0149C5.6009 8.71436 5.2724 9.05036 5.2724 9.46436C5.2724 9.87836 5.6159 10.2144 6.0299 10.2144C6.4439 10.2144 6.7799 9.87836 6.7799 9.46436C6.7799 9.05036 6.4439 8.71436 6.0299 8.71436Z" fill="#FF0102"/>
<path d="M22.731 5.79685C23.1285 5.18936 23.6445 4.85036 23.649 4.84886C23.9325 4.67036 24.063 4.32686 23.97 4.00586C23.8785 3.68486 23.5845 3.46436 23.25 3.46436H18C14.691 3.46436 12 6.15535 12 9.46435C12 12.7734 14.691 15.4643 18 15.4643C21.309 15.4643 24 12.7734 24 9.46435C24 8.12185 23.553 6.83935 22.731 5.79685ZM18 13.9644C15.519 13.9644 13.5 11.9454 13.5 9.46435C13.5 6.98335 15.519 4.96435 18 4.96435H21.4845C21.36 5.15185 21.243 5.36035 21.141 5.58535C21.0165 5.86435 21.0705 6.19135 21.282 6.41185C22.068 7.23835 22.5 8.32135 22.5 9.46435C22.5 11.9454 20.481 13.9644 18 13.9644Z" fill="#28B446"/>
<path d="M18 6.46436C16.3455 6.46436 15 7.80986 15 9.46436C15 11.1189 16.3455 12.4644 18 12.4644C19.6545 12.4644 21 11.1189 21 9.46436C21 7.80986 19.6545 6.46436 18 6.46436ZM18 10.9644C17.172 10.9644 16.5 10.2924 16.5 9.46436C16.5 8.63786 17.172 7.96436 18 7.96436C18.828 7.96436 19.5 8.63786 19.5 9.46436C19.5 10.2924 18.828 10.9644 18 10.9644Z" fill="black"/>
<path d="M18.0299 8.71436H18.0149C17.6009 8.71436 17.2724 9.05036 17.2724 9.46436C17.2724 9.87836 17.6174 10.2144 18.0299 10.2144C18.4439 10.2144 18.7799 9.87836 18.7799 9.46436C18.7799 9.05036 18.4439 8.71436 18.0299 8.71436Z" fill="#FBBB00"/>
</svg>
