<svg width="19" height="24" viewBox="0 0 19 24" fill="none" xmlns="http://www.w3.org/2000/svg">
<path d="M7.74081 17.253L4.35494 21.3761C3.87855 21.9562 4.10615 22.8323 4.80463 23.1072L8.11484 24.41C8.82894 24.6911 9.60522 24.1773 9.62551 23.4101L9.76823 18.0092C9.79701 16.9204 8.43198 16.4113 7.74081 17.253Z" fill="#AF0606"/>
<path d="M7.17796 13.1549L2.15657 11.3521C1.45005 11.0984 0.701488 11.6072 0.677374 12.3575L0.563097 15.913C0.53842 16.6801 1.28333 17.2385 2.01267 16.9996L7.14727 15.3185C8.18234 14.9797 8.20297 13.5229 7.17796 13.1549Z" fill="#AF0606"/>
<path d="M12.9328 13.7334L18.0762 12.3158C18.7999 12.1164 19.1189 11.2693 18.7066 10.642L16.7526 7.66939C16.331 7.02813 15.4005 7.00053 14.9417 7.61576L11.712 11.9469C11.0609 12.82 11.8829 14.0229 12.9328 13.7334Z" fill="#AF0606"/>
<path d="M9.20832 1.37328C9.24924 0.483679 8.41096 -0.187426 7.55183 0.0471995L3.48058 1.15905C2.60228 1.39891 2.22926 2.43848 2.75467 3.18204L7.42671 11.2763C7.46465 11.342 7.50647 11.4057 7.55566 11.4636C8.24756 12.2767 9.54648 11.9754 9.86666 11.0235C9.92417 10.8525 9.94036 10.6703 9.92619 10.4904L9.20832 1.37328Z" fill="#AF0606"/>
<path d="M18.1112 17.4334L12.9463 15.8475C11.9052 15.5278 11.0487 16.7064 11.6742 17.5979L14.7383 21.9655C15.1694 22.58 16.0745 22.5957 16.5266 21.9965L18.6693 19.1569C19.1316 18.5443 18.8448 17.6587 18.1112 17.4334Z" fill="#AF0606"/>
</svg>
